<svg xmlns="http://www.w3.org/2000/svg" width="29" height="24" viewBox="0 0 29 24" fill="none">
        <path d="M9.89631 18.0159H24.1017C24.5759 18.0159 24.9898 17.6264 24.9898 17.1029C24.9898 16.5794 24.5759 16.1899 24.1017 16.1899H10.103C9.40916 16.1899 8.98329 15.7027 8.8737 14.9605L8.67895 13.6824H24.1256C25.9028 13.6824 26.8159 12.5866 27.0714 10.8462L28.0452 4.40673C28.071 4.25381 28.0873 4.09944 28.094 3.9445C28.094 3.36023 27.6557 2.95825 26.9862 2.95825H7.10893L6.8773 1.41265C6.75577 0.47521 6.41508 0 5.17382 0H0.900562C0.413926 0 0 0.42691 0 0.914065C0 1.41265 0.413926 1.83904 0.901081 1.83904H5.01489L6.96248 15.2041C7.21852 16.9325 8.13103 18.0159 9.89631 18.0159ZM26.0244 4.79624L25.1612 10.627C25.0636 11.3817 24.6621 11.8444 23.9438 11.8444L8.412 11.8564L7.37692 4.79624H26.0244ZM10.8582 23.9319C11.1177 23.934 11.3751 23.8845 11.6153 23.7861C11.8556 23.6878 12.0738 23.5426 12.2574 23.3591C12.4409 23.1755 12.5861 22.9573 12.6844 22.7171C12.7828 22.4769 12.8323 22.2195 12.8302 21.9599C12.8313 21.7006 12.781 21.4437 12.6823 21.2039C12.5836 20.9642 12.4384 20.7464 12.255 20.563C12.0717 20.3797 11.8539 20.2345 11.6141 20.1358C11.3744 20.0371 11.1174 19.9868 10.8582 19.9879C9.7509 19.9879 8.87422 20.8646 8.87422 21.9599C8.87422 23.0677 9.7509 23.9319 10.8582 23.9319ZM22.2393 23.9319C23.3471 23.9319 24.2232 23.0677 24.2232 21.9599C24.2232 20.8641 23.3471 19.9879 22.2393 19.9879C21.144 19.9879 20.2554 20.8646 20.2554 21.9599C20.2554 23.0677 21.144 23.9319 22.2393 23.9319Z" fill="white"></path>
      </svg>