<svg xmlns="http://www.w3.org/2000/svg" width="43" height="43" viewBox="0 0 43 43" fill="none">
              <path d="M23.3163 3.5332C25.3038 3.5385 26.3125 3.5491 27.1835 3.57384L27.5262 3.5862C27.922 3.60034 28.3124 3.618 28.7841 3.6392C30.6638 3.72754 31.9464 4.02434 33.0718 4.4607C34.2378 4.90944 35.2201 5.51717 36.2023 6.49767C37.101 7.38053 37.7962 8.4489 38.2393 9.6282C38.6756 10.7536 38.9725 12.0362 39.0608 13.9177C39.082 14.3876 39.0996 14.778 39.1138 15.1755L39.1244 15.5183C39.1509 16.3875 39.1615 17.3962 39.165 19.3837L39.1668 20.7017V23.016C39.1711 24.3046 39.1575 25.5932 39.1261 26.8815L39.1156 27.2242C39.1014 27.6217 39.0837 28.0121 39.0625 28.4821C38.9742 30.3636 38.6739 31.6444 38.2393 32.7715C37.7962 33.9508 37.101 35.0192 36.2023 35.9021C35.3195 36.8008 34.2511 37.4959 33.0718 37.939C31.9464 38.3754 30.6638 38.6722 28.7841 38.7605L27.5262 38.8135L27.1835 38.8241C26.3125 38.8489 25.3038 38.8612 23.3163 38.8648L21.9983 38.8665H19.6858C18.3966 38.8711 17.1073 38.8575 15.8185 38.8259L15.4758 38.8153C15.0564 38.7994 14.6371 38.7812 14.2179 38.7605C12.3382 38.6722 11.0556 38.3754 9.92846 37.939C8.74979 37.4957 7.68204 36.8005 6.7997 35.9021C5.90037 35.0194 5.20459 33.951 4.76096 32.7715C4.3246 31.6462 4.0278 30.3636 3.93946 28.4821L3.88646 27.2242L3.87763 26.8815C3.84506 25.5932 3.83034 24.3046 3.83346 23.016V19.3837C3.82857 18.0951 3.84153 16.8065 3.87233 15.5183L3.8847 15.1755C3.89883 14.778 3.9165 14.3876 3.9377 13.9177C4.02603 12.0362 4.32283 10.7553 4.7592 9.6282C5.20386 8.44842 5.90086 7.38001 6.80146 6.49767C7.6833 5.59941 8.75043 4.90427 9.92846 4.4607C11.0556 4.02434 12.3364 3.72754 14.2179 3.6392C14.6879 3.618 15.0801 3.60034 15.4758 3.5862L15.8185 3.5756C17.1068 3.54421 18.3954 3.53067 19.684 3.53497L23.3163 3.5332ZM21.5001 12.3665C19.1574 12.3665 16.9106 13.2972 15.254 14.9538C13.5974 16.6103 12.6668 18.8571 12.6668 21.1999C12.6668 23.5426 13.5974 25.7894 15.254 27.446C16.9106 29.1025 19.1574 30.0332 21.5001 30.0332C23.8429 30.0332 26.0897 29.1025 27.7462 27.446C29.4028 25.7894 30.3335 23.5426 30.3335 21.1999C30.3335 18.8571 29.4028 16.6103 27.7462 14.9538C26.0897 13.2972 23.8429 12.3665 21.5001 12.3665ZM21.5001 15.8999C22.1961 15.8997 22.8853 16.0367 23.5284 16.303C24.1715 16.5692 24.7558 16.9595 25.248 17.4516C25.7403 17.9436 26.1308 18.5278 26.3972 19.1708C26.6637 19.8138 26.8009 20.503 26.801 21.199C26.8011 21.895 26.6641 22.5842 26.3979 23.2273C26.1317 23.8703 25.7414 24.4547 25.2493 24.9469C24.7572 25.4391 24.173 25.8296 23.53 26.0961C22.8871 26.3625 22.1979 26.4997 21.5019 26.4999C20.0962 26.4999 18.7482 25.9415 17.7542 24.9475C16.7603 23.9536 16.2019 22.6055 16.2019 21.1999C16.2019 19.7942 16.7603 18.4461 17.7542 17.4522C18.7482 16.4583 20.0962 15.8999 21.5019 15.8999M30.7769 9.71653C30.1912 9.71653 29.6295 9.9492 29.2154 10.3633C28.8012 10.7775 28.5686 11.3392 28.5686 11.9249C28.5686 12.5106 28.8012 13.0723 29.2154 13.4864C29.6295 13.9005 30.1912 14.1332 30.7769 14.1332C31.3626 14.1332 31.9243 13.9005 32.3384 13.4864C32.7526 13.0723 32.9852 12.5106 32.9852 11.9249C32.9852 11.3392 32.7526 10.7775 32.3384 10.3633C31.9243 9.9492 31.3626 9.71653 30.7769 9.71653Z" fill="white"></path>
            </svg>